<svg width="53" height="35" viewBox="0 0 53 35" fill="none" xmlns="http://www.w3.org/2000/svg">
<path d="M25.7727 35V0.0909081H13.9773C11.25 0.0909081 9.01136 0.556817 7.26136 1.48864C5.51136 2.40909 4.21591 3.67614 3.375 5.28977C2.53409 6.90341 2.11364 8.73864 2.11364 10.7955C2.11364 12.8523 2.53409 14.6761 3.375 16.267C4.21591 17.858 5.50568 19.108 7.24432 20.017C8.98295 20.9148 11.2045 21.3636 13.9091 21.3636H23.4545V17.5455H14.0455C12.1818 17.5455 10.6818 17.2727 9.54545 16.7273C8.39773 16.1818 7.56818 15.4091 7.05682 14.4091C6.53409 13.3977 6.27273 12.1932 6.27273 10.7955C6.27273 9.39773 6.53409 8.17614 7.05682 7.13068C7.57954 6.08523 8.41477 5.27841 9.5625 4.71023C10.7102 4.13068 12.2273 3.84091 14.1136 3.84091H21.5455V35H25.7727ZM9.34091 19.3182L0.75 35H5.65909L14.1136 19.3182H9.34091Z" fill="white"/>
<path d="M12.0085 11.4432V10.875L16.5824 8.54545V9.45455L13.0739 11.1449L13.1023 11.0881V11.2301L13.0739 11.1733L16.5824 12.8636V13.7727L12.0085 11.4432Z" fill="white"/>
<path d="M29.2273 35V0.0909081H41.0227C43.7614 0.0909081 46 0.585226 47.7386 1.57386C49.4886 2.55114 50.7841 3.875 51.625 5.54545C52.4659 7.21591 52.8864 9.07954 52.8864 11.1364C52.8864 13.1932 52.4659 15.0625 51.625 16.7443C50.7955 18.4261 49.5114 19.767 47.7727 20.767C46.0341 21.7557 43.8068 22.25 41.0909 22.25H32.6364V18.5H40.9545C42.8295 18.5 44.3352 18.1761 45.4716 17.5284C46.608 16.8807 47.4318 16.0057 47.9432 14.9034C48.4659 13.7898 48.7273 12.5341 48.7273 11.1364C48.7273 9.73864 48.4659 8.48864 47.9432 7.38636C47.4318 6.28409 46.6023 5.42045 45.4545 4.79545C44.3068 4.15909 42.7841 3.84091 40.8864 3.84091H33.4545V35H29.2273Z" fill="white"/>
<path d="M39.3381 6.38636L36.9943 15.0938H36.2273L38.571 6.38636H39.3381ZM45.1468 11.4432L40.573 13.7727V12.8636L44.0815 11.1733L44.0531 11.2301V11.0881L44.0815 11.1449L40.573 9.45455V8.54545L45.1468 10.875V11.4432Z" fill="white"/>
</svg>
